An underwater cave diving team experiences a life-threatening crisis during an expedition to the unexplored and least accessible cave system in the world...
 
http://www.imdb.com/title/tt0881320/

Subs: Dutch, English.

Een team van duikers is op expeditie naar de grootste, mooiste en minst toegankelijke grotten op aarde. Door een tropische storm worden ze gedwongen dieper de grotten in te gaan. De ervaren duiker Frank McGuire heeft de Esa-ala grotten in de Zuidelijke Pacific maandenlang onderzocht. Maar wanneer zijn onbekende vluchtweg geblokkeerd is door een vloedgolf wordt Frank's team inclusief zijn zeventienjarige zoon Josh en financier Carl Hurley gedwongen hun plan radicaal te wijzigen. Met slinkende voorraden moeten ze door een onderwater doolhof navigeren om een uitweg te vinden...
 
http://www.moviemeter.nl/film/70098

Ondertitels: Engels, Nederlands.

Sample and Screens included.

General
Complete name                    : Sanctum-AC3-XviD-BDRip 2011.avi
Format                           : AVI
Format/Info                      : Audio Video Interleave
File size                        : 1.46 GiB
Duration                         : 1h 44mn
Overall bit rate                 : 2 010 Kbps
Writing application              : VirtualDubMod 1.5.4.1 (build 2178/release)
Writing library                  : VirtualDubMod build 2178/release
Source                           : Sanctum.2011.BDRip.XviD.AC3-TDP 

Video
ID                               : 0
Format                           : MPEG-4 Visual
Format profile                   : Simple@L3
Format settings, BVOP            : No
Format settings, QPel            : No
Format settings, GMC             : No warppoints
Format settings, Matrix          : Default (H.263)
Codec ID                         : XVID
Codec ID/Hint                    : XviD
Duration                         : 1h 44mn
Bit rate                         : 1 617 Kbps
Width                            : 720 pixels
Height                           : 400 pixels
Display aspect ratio             : 16:9
Frame rate                       : 23.976 fps
Resolution                       : 8 bits
Colorimetry                      : 4:2:0
Scan type                        : Progressive
Bits/(Pixel*Frame)               : 0.234
Stream size                      : 1.18 GiB (80%)
Writing library                  : XviD 1.1.2 (UTC 2006-11-01)

Audio
ID                               : 1
Format                           : AC-3
Format/Info                      : Audio Coding 3
Codec ID                         : 2000
Duration                         : 1h 44mn
Bit rate mode                    : Constant
Bit rate                         : 384 Kbps
Channel(s)                       : 6 channels
Channel positions                : Front: L C R, Surround: L R, LFE
Sampling rate                    : 48.0 KHz
Stream size                      : 286 MiB (19%)
Alignment                        : Split accross interleaves
Interleave, duration             : 42 ms (1.00 video frame)
Interleave, preload duration     : 500 ms

Thanks to TDP and Simply ReleaseS Toppers.

Enjoy..

TBS.